<svg xmlns="http://www.w3.org/2000/svg" viewBox="0 0 1200 720" role="img" aria-labelledby="title desc">
  <title id="title">Abstract blue field-note lines</title>
  <desc id="desc">A quiet abstract blue composition used as a placeholder article image.</desc>
  <rect width="1200" height="720" fill="#f7f4ec"/>
  <path d="M0 520 C180 430 310 610 500 500 C690 390 820 445 960 355 C1070 285 1140 295 1200 330 L1200 720 L0 720 Z" fill="#244f8f" opacity="0.16"/>
  <path d="M0 610 C170 545 300 680 485 585 C670 490 840 540 1010 460 C1100 418 1165 420 1200 448 L1200 720 L0 720 Z" fill="#245049" opacity="0.18"/>
  <g fill="none" stroke="#17345f" stroke-linecap="round" stroke-width="5" opacity="0.5">
    <path d="M170 190 C250 145 330 145 410 190"/>
    <path d="M170 250 C295 204 425 206 550 250"/>
    <path d="M170 310 C360 255 555 260 744 310"/>
    <path d="M170 370 C405 305 640 315 875 370"/>
  </g>
  <circle cx="940" cy="190" r="70" fill="#9f5135" opacity="0.16"/>
</svg>
